<svg width="245" height="297" viewBox="0 0 245 297" fill="none" xmlns="http://www.w3.org/2000/svg">
<path d="M12 32L12 286L16 286L16 32L12 32Z" fill="white"></path>
<path d="M26 31C26 25.471 20.4113 21 13.5 21C6.58874 21 0.999999 25.471 0.999999 31C1 36.529 6.58874 41 13.5 41C20.4113 41 26 36.529 26 31Z" fill="white"></path>
<path d="M26 287C26 281.471 20.4113 277 13.5 277C6.58874 277 0.999999 281.471 0.999999 287C1 292.529 6.58874 297 13.5 297C20.4113 297 26 292.529 26 287Z" fill="white"></path>
<path d="M35 161.913L35 156.087C35 152.173 28.827 149 21.2121 149L13.7879 149C6.17304 149 1.77273e-07 152.173 3.9595e-07 156.087L7.21466e-07 161.913C9.40143e-07 165.827 6.17305 169 13.7879 169L21.2121 169C28.827 169 35 165.827 35 161.913Z" fill="white"></path>
<path d="M217.504 92.6123H123.447C101.187 92.6123 84.7036 97.2857 73.998 106.632C63.4625 115.978 58.1943 131.017 58.1943 151.748C58.1944 171.46 62.8678 186.074 72.2139 195.59C81.56 204.936 95.2395 210.034 113.252 210.884V140.022H227.444V244.274H115.546C84.449 244.274 60.1492 236.543 42.6465 221.079C25.3137 205.446 16.6465 182.335 16.6465 151.748C16.6465 121.331 25.4836 98.3903 43.1562 82.9268C60.9988 67.2933 86.8277 59.4766 120.644 59.4766H217.504V92.6123Z" fill="white"></path>
</svg>