<svg width="2449" height="297" viewBox="0 0 2449 297" fill="none" xmlns="http://www.w3.org/2000/svg">
<path d="M12 32L12 286L16 286L16 32L12 32Z" fill="white"/>
<path d="M26 31C26 25.471 20.4113 21 13.5 21C6.58874 21 0.999999 25.471 0.999999 31C1 36.529 6.58874 41 13.5 41C20.4113 41 26 36.529 26 31Z" fill="white"/>
<path d="M26 287C26 281.471 20.4113 277 13.5 277C6.58874 277 0.999999 281.471 0.999999 287C1 292.529 6.58874 297 13.5 297C20.4113 297 26 292.529 26 287Z" fill="white"/>
<path d="M35 161.913L35 156.087C35 152.173 28.827 149 21.2121 149L13.7879 149C6.17304 149 1.77273e-07 152.173 3.9595e-07 156.087L7.21466e-07 161.913C9.40143e-07 165.827 6.17305 169 13.7879 169L21.2121 169C28.827 169 35 165.827 35 161.913Z" fill="white"/>
<path d="M217.504 92.6123H123.447C101.187 92.6123 84.7036 97.2857 73.998 106.632C63.4625 115.978 58.1943 131.017 58.1943 151.748C58.1944 171.46 62.8678 186.074 72.2139 195.59C81.56 204.936 95.2395 210.034 113.252 210.884V140.022H227.444V244.274H115.546C84.449 244.274 60.1492 236.543 42.6465 221.079C25.3137 205.446 16.6465 182.335 16.6465 151.748C16.6465 121.331 25.4836 98.3903 43.1562 82.9268C60.9988 67.2933 86.8277 59.4766 120.644 59.4766H217.504V92.6123ZM359.096 93.8945L324.242 171.375H398.417L363.673 94.1396L393.549 62.3965L474.885 243H430.533L413.2 204.511H309.458L292.126 243H247.774L329.219 62.1504L359.096 93.8945ZM894.174 60.751C913.036 60.751 927.65 65.5085 938.016 75.0244C948.551 84.5404 953.819 98.9846 953.819 118.356C953.819 134.84 949.995 147.754 942.349 157.101C934.702 166.447 923.827 172.309 909.723 174.688L951.78 243H905.389L866.391 175.963H782.275V243H741.492V175.616L784.915 142.577L889.331 142.826C896.808 142.826 902.5 140.957 906.408 137.219C910.487 133.48 912.526 127.193 912.526 118.356C912.526 109.35 910.486 103.063 906.408 99.4941C902.5 95.756 896.807 93.8868 889.331 93.8867H783.901L784.259 93.4453L743.872 60.751H894.174ZM1091.54 178.802V243H1050.51V178.719L1071 143.708L1091.54 178.802ZM1405.32 243H1208.12L1247.89 209.863H1405.32V243ZM1607.33 243H1435.12L1474.89 209.863H1607.33V243ZM648.757 60.751C668.978 60.751 683.932 64.9987 693.618 73.4951C703.474 81.8217 708.401 94.3967 708.401 111.22C708.401 128.043 702.794 140.363 691.579 148.18C699.056 152.258 704.578 157.695 708.146 164.492C711.715 171.119 713.5 179.702 713.5 190.237C713.5 207.4 708.571 220.484 698.716 229.49C689.03 238.327 674.076 242.745 653.854 242.745L497.229 242.996L538.24 210.568L537.885 210.119H649.012C664.475 210.119 672.207 202.812 672.207 188.198C672.207 173.924 664.475 166.787 649.012 166.787H536.093V209.717L495.311 241.963V63.7871L535.765 95.5723L536.093 95.1543V134.16H643.913C659.377 134.16 667.108 127.193 667.108 113.259C667.108 100.004 659.377 93.377 643.913 93.377H536.207L495.331 61.2598L648.757 60.751ZM1246.26 95.3818V134.16H1390.53V167.297H1246.26V208.615L1205.48 242.6V61.2383L1246.26 95.3818ZM1474.02 208.028L1474 208L1433.24 241.965V60.751H1474.02V208.028ZM151.485 211.139H186.661V173.159H151.485V211.139ZM1069.74 141.9L1049.4 176.655L953.9 60.751H1004.37L1069.74 141.9ZM1092.54 176.538L1072.17 141.749L1137.17 60.751H1187.64L1092.54 176.538ZM782.275 94.4131V142.072L741.492 173.104V61.3984L782.275 94.4131ZM1405.32 93.8867H1247.59L1208.01 60.751H1405.32V93.8867ZM362.365 92.6123H360.635L330.648 60.751H392.352L362.365 92.6123Z" fill="white"/>
<path d="M1677.35 94.4845C1677.35 85.0706 1676.06 78.1486 1673.47 73.7185C1670.89 69.1038 1665.72 66.7965 1657.97 66.7965H1652.43V61.2589H1677.35C1684.18 61.2589 1689.26 62.1818 1692.58 64.0277C1696.08 65.689 1698.58 68.8269 1700.05 73.4416C1701.53 78.0563 1702.27 85.0706 1702.27 94.4845V232.925H1800.56V244H1677.35V94.4845ZM1888.52 249.538C1871.36 249.538 1856.22 245.292 1843.12 236.801C1830.2 228.31 1820.23 216.681 1813.21 201.914C1806.2 187.147 1802.69 170.719 1802.69 152.629C1802.69 134.54 1806.2 118.112 1813.21 103.345C1820.23 88.5777 1830.2 76.9488 1843.12 68.4578C1856.22 59.9668 1871.36 55.7213 1888.52 55.7213C1905.69 55.7213 1920.74 59.9668 1933.66 68.4578C1946.76 76.9488 1956.82 88.5777 1963.84 103.345C1970.85 118.112 1974.36 134.54 1974.36 152.629C1974.36 170.719 1970.85 187.147 1963.84 201.914C1956.82 216.681 1946.76 228.31 1933.66 236.801C1920.74 245.292 1905.69 249.538 1888.52 249.538ZM1888.52 238.462C1900.52 238.462 1910.86 234.955 1919.54 227.941C1928.4 220.927 1935.13 211.051 1939.75 198.315C1944.36 185.394 1946.67 170.165 1946.67 152.629C1946.67 135.094 1944.36 119.958 1939.75 107.221C1935.13 94.2999 1928.4 84.3322 1919.54 77.3179C1910.86 70.3036 1900.52 66.7965 1888.52 66.7965C1876.53 66.7965 1866.1 70.3036 1857.24 77.3179C1848.56 84.3322 1841.92 94.2999 1837.3 107.221C1832.69 119.958 1830.38 135.094 1830.38 152.629C1830.38 170.165 1832.69 185.394 1837.3 198.315C1841.92 211.051 1848.56 220.927 1857.24 227.941C1866.1 234.955 1876.53 238.462 1888.52 238.462ZM2014.53 94.4845C2014.53 85.0706 2013.23 78.1486 2010.65 73.7185C2008.07 69.1038 2002.9 66.7965 1995.15 66.7965H1989.61V61.2589H2061.6C2079.32 61.2589 2095.28 65.0429 2109.5 72.611C2123.71 80.179 2130.82 94.8537 2130.82 116.635C2130.82 131.033 2127.13 142.108 2119.74 149.861C2112.36 157.613 2104.05 162.782 2094.82 165.366C2085.78 167.95 2077.47 169.242 2069.9 169.242H2039.45V244H2014.53V94.4845ZM2060.21 159.551C2066.12 159.551 2072.4 158.075 2079.04 155.121C2085.69 151.983 2091.32 147.092 2095.93 140.447C2100.73 133.802 2103.13 125.403 2103.13 115.251C2103.13 105.098 2100.73 96.6996 2095.93 90.0544C2091.32 83.4093 2085.69 78.61 2079.04 75.6566C2072.4 72.5187 2066.12 70.9497 2060.21 70.9497C2053.75 70.9497 2046.83 71.8726 2039.45 73.7185V156.783C2046.83 158.629 2053.75 159.551 2060.21 159.551ZM2167.3 94.4845C2167.3 85.0706 2166.01 78.1486 2163.42 73.7185C2160.84 69.1038 2155.67 66.7965 2147.92 66.7965H2142.38V61.2589H2260.33C2276.02 61.2589 2283.86 68.6423 2283.86 83.4093V104.175H2278.33C2278.33 82.9478 2266.79 72.3341 2243.72 72.3341H2192.22V144.323H2266.98V155.398H2192.22V232.925H2240.67C2253.41 232.925 2263.38 230.617 2270.57 226.003C2277.77 221.388 2283.5 213.543 2287.74 202.468L2293.28 203.852L2283.59 230.156C2280.27 239.385 2273.34 244 2262.82 244H2167.3V94.4845ZM2379.35 248.707C2369.19 248.707 2359.23 247.323 2349.44 244.554C2339.66 241.785 2331.63 237.816 2325.35 232.648C2319.26 227.479 2316.22 221.573 2316.22 214.928V185.301H2321.2C2324.34 203.76 2330.43 217.143 2339.47 225.449C2348.52 233.571 2360.98 237.632 2376.85 237.632C2386.82 237.632 2395.31 235.14 2402.33 230.156C2409.53 225.172 2413.12 218.25 2413.12 209.39C2413.12 201.637 2410.72 194.9 2405.93 189.178C2401.13 183.455 2393.37 177.456 2382.67 171.18L2348.61 150.968C2336.8 143.954 2328.4 136.847 2323.42 129.648C2318.62 122.449 2316.22 113.682 2316.22 103.345C2316.22 89.1315 2321.11 77.7794 2330.89 69.2884C2340.86 60.6128 2353.87 56.275 2369.93 56.275C2379.35 56.275 2388.67 57.6594 2397.9 60.4282C2407.13 63.0124 2414.69 66.8888 2420.6 72.0572C2426.69 77.0411 2429.74 82.8555 2429.74 89.5007V119.127H2424.75C2421.62 100.668 2415.62 87.4702 2406.76 79.533C2398.08 71.4112 2385.81 67.3502 2369.93 67.3502C2361.44 67.3502 2353.96 69.9345 2347.5 75.1029C2341.04 80.2713 2337.81 87.0088 2337.81 95.3152C2337.81 102.883 2340.12 109.159 2344.74 114.143C2349.53 119.127 2357.47 124.941 2368.55 131.587L2402.6 151.799C2415.16 159.367 2424.02 166.381 2429.18 172.842C2434.35 179.302 2436.94 187.516 2436.94 197.484C2436.94 212.989 2431.77 225.449 2421.43 234.863C2411.09 244.092 2397.07 248.707 2379.35 248.707Z" fill="white"/>
<rect x="1878" y="142" width="19" height="19" rx="9.5" fill="white"/>
</svg>
